# xmcd CD database file
#
# Track frame offsets:
#	150
#	15377
#	28817
#	42975
#	56588
#	68689
#	81944
#	95967
#	108523
#	120602
#	133021
#	145963
#	159745
#	172494
#	184543
#	198643
#	212181
#	225300
#	239203
#	253238
#	266087
#	278687
#
# Disc length: 3882 seconds
#
# Revision: 1
# Processed by: cddbd v1.5.2PL0 Copyright (c) Steve Scherf et al.
# Submitted via: CDex 1.51
#
DISCID=550f2816
DTITLE=T.Bone Walker - BD Blues CD1 1942/1947
DYEAR=2007
DGENRE=Blues
TTITLE0=I got a break baby
TTITLE1=Mean old world
TTITLE2=Come back to my baby
TTITLE3=She's going to ruin me
TTITLE4=Bobby sox blues
TTITLE5=I'm gonna find my baby
TTITLE6=Call it stormy monday
TTITLE7=T-Bones jumps again
TTITLE8=She's my old time used to be
TTITLE9=Midnight blues
TTITLE10=Long skirt baby blues
TTITLE11=I'm waiting for your call
TTITLE12=Hypin' woman blues
TTITLE13=Lonesome woman blues
TTITLE14=Description blues
TTITLE15=T-Bone shuffle
TTITLE16=That old feelin' is gone
TTITLE17=Go back to the one you love
TTITLE18=Plain old down home blues
TTITLE19=Prison blues
TTITLE20=I want a little girl
TTITLE21=West side baby
EXTD=YEAR: 2007
EXTT0=
EXTT1=
EXTT2=
EXTT3=
EXTT4=
EXTT5=
EXTT6=
EXTT7=
EXTT8=
EXTT9=
EXTT10=
EXTT11=
EXTT12=
EXTT13=
EXTT14=
EXTT15=
EXTT16=
EXTT17=
EXTT18=
EXTT19=
EXTT20=
EXTT21=
PLAYORDER=
